<?xml version="1.0" encoding="UTF-8" standalone="no"?>
<svg width="228px" height="114px" viewBox="0 0 228 114" version="1.1" xmlns="http://www.w3.org/2000/svg" xmlns:xlink="http://www.w3.org/1999/xlink" xmlns:sketch="http://www.bohemiancoding.com/sketch/ns">
    <!-- Generator: Sketch 3.4.4 (17249) - http://www.bohemiancoding.com/sketch -->
    <title>tieto</title>
    <desc>Created with Sketch.</desc>
    <defs>
        <path id="path-1" d="M0.0623255814,0.0293023256 L133.531519,0.0293023256 L133.531519,44.9372093 L0.0623255814,44.9372093 L0.0623255814,0.0293023256 Z"></path>
    </defs>
    <g id="Page-1" stroke="none" stroke-width="1" fill="none" fill-rule="evenodd" sketch:type="MSPage">
        <g id="logos" sketch:type="MSArtboardGroup" transform="translate(-1015.000000, -907.000000)">
            <g id="tieto_logo_blue" sketch:type="MSLayerGroup" transform="translate(1062.000000, 942.000000)">
                <g id="Group-5">
                    <mask id="mask-2" sketch:name="Clip 2" fill="white">
                        <use xlink:href="#path-1"></use>
                    </mask>
                    <g id="Clip-2"></g>
                    <path d="M64.1444496,24.2173256 C63.9460465,20.5430233 61.289938,17.5039535 57.6044186,17.5039535 C53.7101085,17.5039535 51.1173643,20.2290698 50.4764496,24.2173256 L64.1444496,24.2173256 L64.1444496,24.2173256 Z M50.4764496,30.237907 C50.6655039,34.7347674 53.3216124,37.7162791 57.9929147,37.7162791 C60.6490233,37.7162791 63.2417674,36.5106977 64.2711783,34.1026744 L74.5787907,34.1026744 C72.5646357,41.7045349 65.3733023,45 57.8568372,45 C46.9083101,45 39.4635194,38.5377907 39.4635194,27.5127907 C39.4635194,17.4422093 47.6842636,10.215 57.6044186,10.215 C69.6561085,10.215 75.6809147,19.0894186 75.1573798,30.237907 L50.4764496,30.237907 L50.4764496,30.237907 Z" id="Fill-1" fill="#ffffff" sketch:type="MSShapeGroup" mask="url(#mask-2)"></path>
                    <path d="M115.769767,36.7618605 C120.89293,36.7618605 122.50924,31.8233721 122.50924,27.6404651 C122.50924,23.4575581 120.89293,18.4531395 115.769767,18.4531395 C110.656992,18.4531395 109.103008,23.4575581 109.103008,27.6404651 C109.103008,31.8233721 110.656992,36.7618605 115.769767,36.7618605 L115.769767,36.7618605 Z M115.769767,10.215 C126.204109,10.215 133.531519,17.7551163 133.531519,27.6404651 C133.531519,37.525814 126.204109,45 115.769767,45 C105.344775,45 98.0900775,37.525814 98.0900775,27.6404651 C98.0900775,17.7551163 105.344775,10.215 115.769767,10.215 L115.769767,10.215 Z" id="Fill-3" fill="#ffffff" sketch:type="MSShapeGroup" mask="url(#mask-2)"></path>
                    <path d="M23.3887132,18.2323256 L16.5869147,18.2323256 L16.5869147,32.8646512 C16.5869147,35.5405814 18.1408992,36.1266279 20.5342016,36.1266279 C21.4379225,36.1266279 22.4133178,35.9947674 23.3887132,35.9947674 L23.3887132,44.1544186 C21.3745581,44.2182558 19.3687132,44.4819767 17.3628682,44.4819767 C7.96832558,44.4819767 5.56463566,41.7380233 5.56463566,32.537093 L5.56463566,18.2323256 L0,18.2323256 L0,11.0553488 L5.56463566,11.0553488 L5.56463566,0.0303488372 L16.5869147,0.0303488372 L16.5869147,11.0553488 L23.3887132,11.0553488 L23.3887132,18.2323256" id="Fill-4" fill="#ffffff" sketch:type="MSShapeGroup" mask="url(#mask-2)"></path>
                </g>
                <path d="M26,10.9947823 L36.9989626,10.9947823 L36.9989626,44 L26,44 L26,10.9947823 Z M26,0 L37,0 L37,7.97267811 L26,7.97267811 L26,0 Z" id="Fill-6" fill="#ffffff" sketch:type="MSShapeGroup"></path>
                <path d="M98,18.0170449 L91.3112453,18.0170449 L91.3112453,32.5007063 C91.3112453,35.1494491 92.8394031,35.7295414 95.1929295,35.7295414 C96.0816308,35.7295414 97.0408154,35.5990206 98,35.5990206 L98,43.6757698 C96.0193196,43.7389585 94.0468112,44 92.0753242,44 C82.8358945,44 80.4721531,41.283925 80.4721531,32.1764761 L80.4721531,18.0170449 L75,18.0170449 L75,10.9129862 L80.4721531,10.9129862 L80.4721531,0 L91.3112453,0 L91.3112453,10.9129862 L98,10.9129862 L98,18.0170449" id="Fill-7" fill="#ffffff" sketch:type="MSShapeGroup"></path>
            </g>
        </g>
    </g>
</svg>
