<svg width="228" height="114" viewBox="0 0 228 114" xmlns="http://www.w3.org/2000/svg" xmlns:xlink="http://www.w3.org/1999/xlink"><title>tieto</title><defs><path id="a" d="M.062.03h133.47v44.907H.062V.03z"/></defs><g fill="none" fill-rule="evenodd"><g transform="translate(47 35)"><mask id="b" fill="#fff"><use xlink:href="#a"/></mask><path d="M64.144 24.217c-.198-3.674-2.854-6.713-6.54-6.713-3.894 0-6.487 2.725-7.128 6.713h13.668zm-13.668 6.02c.19 4.498 2.846 7.48 7.517 7.48 2.656 0 5.249-1.206 6.278-3.614H74.58C72.565 41.705 65.373 45 57.857 45c-10.949 0-18.393-6.462-18.393-17.487 0-10.07 8.22-17.298 18.14-17.298 12.052 0 18.077 8.874 17.553 20.023h-24.68zm65.294 6.525c5.123 0 6.74-4.939 6.74-9.122 0-4.182-1.617-9.187-6.74-9.187-5.113 0-6.667 5.005-6.667 9.187 0 4.183 1.554 9.122 6.667 9.122zm0-26.547c10.434 0 17.762 7.54 17.762 17.425 0 9.886-7.328 17.36-17.762 17.36-10.425 0-17.68-7.474-17.68-17.36 0-9.885 7.255-17.425 17.68-17.425zm-92.381 8.017h-6.802v14.633c0 2.676 1.554 3.262 3.947 3.262.904 0 1.88-.132 2.855-.132v8.16c-2.014.063-4.02.327-6.026.327-9.395 0-11.798-2.744-11.798-11.945V18.232H0v-7.177h5.565V.03h11.022v11.025h6.802v7.177" fill="#62b3e5" mask="url(#b)"/></g><path d="M73 45.995h10.999V79H73V45.995zM73 35h11v7.973H73V35zm72 18.017h-6.689v14.484c0 2.648 1.528 3.229 3.882 3.229.889 0 1.848-.131 2.807-.131v8.077c-1.98.063-3.953.324-5.925.324-9.24 0-11.603-2.716-11.603-11.824V53.017H122v-7.104h5.472V35h10.84v10.913H145v7.104" fill="#62b3e5"/></g></svg>